<svg height="800" version="1.1" width="800" xmlns="http://www.w3.org/2000/svg"><desc>Created with Snap</desc><defs></defs><rect x="50" y="50" width="100" height="100" rx="2" ry="2" fill="#ffffff" stroke="#000000" style="stroke-width: 1px;"></rect><rect x="250" y="50" width="100" height="100" rx="2" ry="2" fill="#ffffff" stroke="#000000" style="stroke-width: 1px;"></rect><path d="M150,100 L250,100" fill="#ffffff" stroke="#000000" style="stroke-width: 1px;"></path><circle cx="150" cy="100" r="4"></circle><path d="M250,100L240,105L240,95L250,100"></path><rect x="50" y="250" width="100" height="100" rx="2" ry="2" fill="#ffffff" stroke="#000000" style="stroke-width: 1px;"></rect><rect x="250" y="350" width="100" height="100" rx="2" ry="2" fill="#ffffff" stroke="#000000" style="stroke-width: 1px;"></rect><path d="M150,300L200,300L200,400L250,400" fill="#ffffff" stroke="#000000" style="stroke-width: 1px;"></path><circle cx="150" cy="300" r="4"></circle><path d="M250,400L240,405L240,395L250,400"></path><rect x="50" y="500" width="100" height="100" rx="2" ry="2" fill="#ffffff" stroke="#000000" style="stroke-width: 1px;"></rect><rect x="250" y="500" width="100" height="100" rx="2" ry="2" fill="#ffffff" stroke="#000000" style="stroke-width: 1px;"></rect><path d="M50,550 L350,550" fill="#ffffff" stroke="#000000" style="stroke-width: 1px;"></path><circle cx="50" cy="550" r="4"></circle><path d="M350,550L340,555L340,545L350,550"></path></svg>